<svg width="100" height="100" viewBox="0 0 100 100" fill="none" xmlns="http://www.w3.org/2000/svg">
<path d="M50 27.0833C65.7917 27.0833 79.875 35.9583 86.75 50C79.875 64.0417 65.8333 72.9167 50 72.9167C34.1667 72.9167 20.125 64.0417 13.25 50C20.125 35.9583 34.2083 27.0833 50 27.0833ZM50 18.75C29.1667 18.75 11.375 31.7083 4.16667 50C11.375 68.2917 29.1667 81.25 50 81.25C70.8333 81.25 88.625 68.2917 95.8333 50C88.625 31.7083 70.8333 18.75 50 18.75ZM50 39.5833C55.75 39.5833 60.4167 44.25 60.4167 50C60.4167 55.75 55.75 60.4167 50 60.4167C44.25 60.4167 39.5833 55.75 39.5833 50C39.5833 44.25 44.25 39.5833 50 39.5833ZM50 31.25C39.6667 31.25 31.25 39.6667 31.25 50C31.25 60.3333 39.6667 68.75 50 68.75C60.3333 68.75 68.75 60.3333 68.75 50C68.75 39.6667 60.3333 31.25 50 31.25Z" fill="black"/>
</svg>
